<svg width="28" height="28" viewBox="0 0 28 28" fill="none" xmlns="http://www.w3.org/2000/svg">
  <path d="M19.1 14.7C19.1 11.8 21.5 10.4 21.6 10.3C20.2 8.3 18.1 8 17.3 8C15.5 7.8 13.7 9.1 12.8 9.1C11.9 9.1 10.2 8.1 8.7 8.1C6.7 8.1 4.8 9.3 3.8 11.1C1.7 14.7 3.3 20.1 5.3 23C6.3 24.4 7.4 25.9 9 25.9C10.5 25.8 11.1 25 12.9 25C14.7 25 15.2 25.9 16.8 25.8C18.5 25.8 19.5 24.3 20.5 22.9C21.6 21.3 22.1 19.7 22.1 19.6C22 19.6 19.1 18.5 19.1 14.7ZM16.1 6.1C16.9 5.1 17.4 3.8 17.3 2.4C16.1 2.5 14.8 3.2 13.9 4.2C13.2 5 12.5 6.4 12.7 7.7C14 7.8 15.3 7.1 16.1 6.1Z" fill="#FFFFFF"/>
</svg>
